Coordinates
version=1
nRows=8
nColumns=36
inDegrees=yes

Units are S.I. units (second, meters, Newtons, ...)
If the header above contains a line with 'inDegrees', this indicates whether rotational values are in degrees (yes) or radians (no).

endheader
time	pelvis_tilt	pelvis_list	pelvis_rotation	pelvis_tx	pelvis_ty	pelvis_tz	hip_flexion_r	hip_adduction_r	hip_rotation_r	knee_angle_r	knee_angle_r_beta	ankle_angle_r	subtalar_angle_r	mtp_angle_r	hip_flexion_l	hip_adduction_l	hip_rotation_l	knee_angle_l	knee_angle_l_beta	ankle_angle_l	subtalar_angle_l	mtp_angle_l	lumbar_extension	lumbar_bending	lumbar_rotation	arm_flex_r	arm_add_r	arm_rot_r	elbow_flex_r	pro_sup_r	arm_flex_l	arm_add_l	arm_rot_l	elbow_flex_l	pro_sup_l
      0.00000000	     -0.87096037	      1.86005321	     -0.02679963	      0.63289868	      0.78583116	      0.69561713	    -20.52071493	      0.32318737	      2.86272158	      8.13435303	      0.14197124	      5.19037330	    -11.77461187	     -6.98265841	     33.34034212	      6.18866280	      4.69880427	     22.80617124	      0.39804278	      2.39243426	     -8.32293003	     -6.98265841	     -9.35158113	     -1.69765370	      4.79506264	      8.54412419	    -14.19938179	     -8.02862264	     27.87195306	     92.07056034	      7.81604844	    -10.06496776	      0.01154225	     14.06075584	     90.95128341
      0.01666670	      0.95016014	      0.44810073	      0.09027325	      0.63247954	      0.79160934	      0.69632581	    -19.97724641	      1.72625179	      2.65782358	     14.52746093	      0.25355203	      4.72037069	    -10.86776135	     -6.99501677	     31.78806620	      5.32785338	      5.41994217	     26.47817155	      0.46213127	      3.74415152	    -10.01456270	     -6.99501677	    -11.99881855	     -0.62399387	      4.53926363	      9.37197400	    -14.28325205	     -8.31440374	     28.27753542	     91.86335864	      8.74390236	    -10.06329996	     -0.10043922	     13.99609347	     91.13818703
      0.03333330	      2.09822797	      0.18665570	      0.58872672	      0.63146703	      0.79800714	      0.69641596	    -17.86079811	      1.91263939	      1.12617565	     22.18173659	      0.38714434	      1.42528690	    -11.38936765	     -7.00851320	     29.78814814	      5.57201614	      6.59253597	     27.86891907	      0.48640440	      5.14319335	    -10.19957988	     -7.00851320	    -13.38162310	     -0.18320618	      3.72867693	      9.94069368	    -14.23466469	     -8.44702562	     28.55639064	     91.59224806	      9.33897967	    -10.43805776	     -0.05792055	     13.84121468	     91.18574308
      0.05000000	      1.56642801	      0.28701827	      0.51033333	      0.63211133	      0.80221857	      0.69722068	    -13.18867231	      1.16135903	      0.00896546	     30.82271064	      0.53795779	     -4.87496090	    -12.97832405	     -7.04446777	     29.27849075	      5.72465424	      6.66217997	     28.38056170	      0.49533425	      6.23830978	    -10.41488790	     -7.04446777	    -12.54290562	     -0.29537803	      3.12829699	     10.30470410	    -13.97360302	     -8.29090655	     27.58007151	     91.48802482	      9.73894395	    -10.74603542	      0.37592524	     12.64557309	     92.00478200
      0.06666670	      1.06044064	      0.42307826	      0.34075785	      0.63383900	      0.80468097	      0.69842470	     -8.48151991	      0.39553554	     -0.96581572	     38.79049197	      0.67702180	    -11.66489233	    -14.02214961	     -7.07323312	     28.35882127	      5.90961145	      6.82516607	     28.36672435	      0.49509274	      7.71314997	     -9.98289623	     -7.07323312	    -11.75679117	     -0.52406665	      2.70700470	     10.30116557	    -13.66459660	     -7.90821220	     26.61966635	     91.62325018	     10.10241833	    -10.96092041	      0.84689951	     11.97343700	     92.78807453
      0.08333330	      0.34967439	      0.80461684	     -0.13947337	      0.63499315	      0.80542280	      0.69968364	     -3.21650245	     -0.66774485	     -1.63054235	     46.51774218	      0.81188776	    -15.93501985	    -14.30852527	     -7.10029965	     27.41167025	      6.09061089	      6.61193992	     27.97340565	      0.48822803	      8.93640834	     -9.47195878	     -7.10029965	    -10.87856951	     -1.10175457	      2.42054638	      9.99910611	    -13.12421809	     -7.49694663	     25.66580390	     91.78983102	     10.35709350	    -11.21952556	      1.28601326	     11.42595275	     93.49240353
      0.10000000	     -0.41263323	      1.14365195	     -0.69796616	      0.63417241	      0.80596209	      0.70004483	      2.18534828	     -1.47183283	     -2.02937676	     53.39932944	      0.93199412	    -17.55169472	    -14.59517009	     -7.17296719	     26.44913664	      6.16376502	      6.35068583	     27.36541486	      0.47761659	      9.86727286	     -9.09147197	     -7.17296719	    -10.08624955	     -1.60289262	      2.24970709	      9.64167787	    -12.62194109	     -6.46687469	     24.52423269	     91.90329304	     10.69823557	    -11.54755501	      2.53312331	     10.83642578	     95.21897959
      0.11666670	     -1.17072813	      1.37996990	     -1.21025921	      0.63258885	      0.80639902	      0.69999423	      7.37796063	     -1.92913188	     -2.30815696	     59.13823920	      1.03215699	    -16.93878335	    -14.81192380	     -7.19367523	     25.51618404	      6.10903102	      6.02845414	     26.67549398	      0.46557520	     10.40499244	     -8.93583352	     -7.19367523	     -9.38639732	     -1.90689142	      2.19005408	      9.03235099	    -12.03343014	     -6.48641260	     23.84451946	     90.06985705	     10.86811608	    -11.69822063	      2.33995459	     10.71423173	     93.51953954
